<?xml version="1.0" encoding="utf-8"?>
<!-- Generator: Adobe Illustrator 19.1.0, SVG Export Plug-In . SVG Version: 6.00 Build 0)  -->
<!DOCTYPE svg PUBLIC "-//W3C//DTD SVG 1.1//EN" "http://www.w3.org/Graphics/SVG/1.1/DTD/svg11.dtd">
<svg version="1.1" id="logo_x5F_color" xmlns="http://www.w3.org/2000/svg" xmlns:xlink="http://www.w3.org/1999/xlink" x="0px"
	 y="0px" viewBox="-364 280.3 112 36" enable-background="new -364 280.3 112 36" xml:space="preserve">
<g>
	<path id="path243" fill="#201C1D" d="M-323.9,293.5c-1.7,0-3.6,0.7-4,2.8c0,0.2,0.1,0.3,0.3,0.4l1.8,0.2c0.2,0,0.3-0.2,0.3-0.4
		c0.1-0.7,0.8-1.1,1.5-1.1c0.4,0,0.8,0.1,1,0.5c0.3,0.4,0.2,0.9,0.2,1.3v0.3c-1,0.1-2.4,0.2-3.4,0.6c-1.1,0.5-1.9,1.5-1.9,3
		c0,1.9,1.2,2.9,2.7,2.9c1.3,0,2-0.3,3-1.3c0.3,0.5,0.4,0.7,1,1.2c0.1,0.1,0.3,0.1,0.4,0v0c0.4-0.3,1-0.9,1.4-1.2
		c0.1-0.1,0.1-0.3,0-0.5c-0.3-0.5-0.7-0.8-0.7-1.7v-2.9c0-1.2,0.1-2.3-0.8-3.2C-321.8,293.7-323,293.5-323.9,293.5z M-300.3,293.5
		c-1.7,0-3.6,0.7-4,2.8c0,0.2,0.1,0.3,0.3,0.4l1.8,0.2c0.2,0,0.3-0.2,0.3-0.4c0.2-0.7,0.8-1.1,1.5-1.1c0.4,0,0.8,0.1,1,0.5
		c0.3,0.4,0.2,0.9,0.2,1.3v0.3c-1,0.1-2.4,0.2-3.4,0.6c-1.1,0.5-1.9,1.5-1.9,3c0,1.9,1.2,2.9,2.7,2.9c1.3,0,2-0.3,3-1.3
		c0.3,0.5,0.4,0.7,1,1.2c0.1,0.1,0.3,0.1,0.4,0v0c0.4-0.3,1-0.9,1.4-1.2c0.1-0.1,0.1-0.3,0-0.5c-0.3-0.5-0.7-0.8-0.7-1.7v-2.9
		c0-1.2,0.1-2.3-0.8-3.2C-298.3,293.7-299.4,293.5-300.3,293.5z M-313.5,293.6c-1.1,0-1.9,0.6-2.4,1.8h0v-1.2c0-0.2-0.2-0.3-0.3-0.3
		h-1.7c-0.2,0-0.4,0.2-0.4,0.4v9.5c0,0.2,0.2,0.3,0.3,0.3h1.8c0.2,0,0.4-0.2,0.4-0.4v-5c0-1.1-0.1-2.6,1.2-2.6
		c1.3,0,1.1,1.5,1.1,2.6v5c0,0.2,0.1,0.3,0.3,0.4h1.8c0.2,0,0.4-0.2,0.4-0.4v-5c0-0.5,0-1.3,0.2-1.8c0.2-0.5,0.6-0.8,1.1-0.8
		c0.5,0,0.9,0.2,1.1,0.8c0.1,0.4,0,1.4,0,1.8v5c0,0.2,0.1,0.3,0.3,0.4h1.8c0.2,0,0.4-0.2,0.4-0.4v-6c0-1,0.1-2.2-0.5-3
		c-0.5-0.7-1.3-1-2.1-1c-1.1,0-2,0.6-2.5,1.8C-311.7,294.1-312.4,293.6-313.5,293.6z M-282.9,293.6c-2.6,0-4,2.3-4,5.2
		c0,2.9,1.4,5.3,4,5.3c2.5,0,4.1-2.3,4.1-5.2C-278.8,295.9-280.2,293.6-282.9,293.6z M-272.6,293.6c-1.2,0-2,0.6-2.5,1.9h0V294
		c0-0.1-0.2-0.2-0.3-0.3h-1.7c-0.2,0-0.3,0.1-0.4,0.3v9.5c0,0.2,0.1,0.3,0.3,0.4h1.8c0.2,0,0.3-0.2,0.4-0.4v-5.1
		c0-0.6,0.1-1.2,0.3-1.8c0.2-0.5,0.6-0.7,1-0.7c1.2,0,1.1,1.5,1.1,2.6v5.1c0,0.2,0.2,0.3,0.3,0.3h1.8c0.2,0,0.3-0.1,0.4-0.3v-6
		c0-0.9,0-2.2-0.5-2.9C-271,293.9-271.8,293.6-272.6,293.6L-272.6,293.6z M-294.3,293.7c-0.2,0-0.3,0.1-0.3,0.4v1.4
		c0,0.2,0.1,0.3,0.3,0.4h3.1l-3.5,5.2c-0.2,0.3-0.2,0.7-0.2,0.9v1.4c0,0.2,0.2,0.4,0.4,0.3c2-1.1,4.4-1,6.2,0
		c0.2,0.1,0.4-0.1,0.4-0.3v-1.5c0-0.2-0.1-0.4-0.3-0.5c-1-0.6-2.2-0.8-3.4-0.7l3.1-4.5c0.3-0.4,0.4-0.6,0.4-0.8v-1.2
		c0-0.2-0.1-0.4-0.3-0.4H-294.3z M-282.9,295.5c0.6,0,1,0.3,1.2,0.9c0.2,0.8,0.3,1.7,0.3,2.5c0,1.2-0.1,3.2-1.5,3.2
		c-1.4,0-1.4-2.5-1.4-3.7C-284.3,297.4-284.2,295.5-282.9,295.5z M-322.9,299v0.4c0,0.7,0,1.3-0.3,2c-0.3,0.5-0.7,0.8-1.2,0.8
		c-0.7,0-1.1-0.6-1.1-1.4C-325.6,299.3-324.2,299-322.9,299z M-299.3,299v0.4c0,0.7,0,1.3-0.3,2c-0.3,0.5-0.7,0.8-1.2,0.8
		c-0.7,0-1.1-0.6-1.1-1.4C-302,299.3-300.6,299-299.3,299z"/>
	<path id="path257" d="M-287.6,304.2v1.4h0.9v-1.4H-287.6z M-314.1,304.5v9.7h0.8v-0.9c0.2,0.3,0.4,0.6,0.6,0.8
		c0.2,0.2,0.5,0.3,0.8,0.3c0.6,0,1.2-0.3,1.6-1c0.5-0.6,0.7-1.6,0.7-2.8c0-0.8-0.1-1.4-0.3-2c-0.2-0.5-0.5-0.9-0.8-1.2
		c-0.3-0.3-0.7-0.4-1.1-0.4c-0.3,0-0.6,0.1-0.8,0.2c-0.2,0.2-0.4,0.4-0.6,0.7v-3.5H-314.1z M-305.4,306.7c-0.6,0-1.1,0.2-1.5,0.6
		c-0.4,0.4-0.5,0.9-0.5,1.5c0,0.3,0.1,0.6,0.2,0.9c0.1,0.3,0.3,0.5,0.6,0.7c0.2,0.2,0.7,0.4,1.4,0.6c0.5,0.2,0.8,0.3,0.9,0.4
		c0.2,0.2,0.3,0.4,0.3,0.6c0,0.3-0.1,0.6-0.3,0.8c-0.2,0.2-0.5,0.3-0.9,0.3c-0.4,0-0.7-0.1-1-0.4c-0.2-0.2-0.4-0.6-0.4-1.1l-0.9,0.2
		c0.2,1.5,1,2.2,2.2,2.2c0.7,0,1.2-0.2,1.6-0.6c0.4-0.4,0.6-1,0.6-1.6c0-0.4-0.1-0.7-0.2-0.9c-0.1-0.3-0.3-0.5-0.5-0.6
		c-0.2-0.2-0.7-0.4-1.5-0.6c-0.5-0.2-0.9-0.3-1-0.4c-0.2-0.1-0.3-0.4-0.3-0.6c0-0.3,0.1-0.5,0.3-0.7c0.2-0.2,0.5-0.3,0.9-0.3
		c0.7,0,1.1,0.4,1.2,1.1l0.9-0.1c-0.1-0.5-0.2-0.9-0.3-1.1c-0.2-0.3-0.4-0.5-0.7-0.6C-304.7,306.8-305,306.7-305.4,306.7z
		 M-299.9,306.7c-0.7,0-1.3,0.3-1.8,0.9c-0.5,0.6-0.7,1.6-0.7,2.8c0,1.2,0.2,2.1,0.7,2.7c0.5,0.6,1.1,0.9,1.8,0.9
		c0.6,0,1.1-0.2,1.5-0.6c0.4-0.4,0.7-0.9,0.9-1.7l-0.9-0.2c-0.3,1-0.8,1.4-1.5,1.4c-0.4,0-0.8-0.2-1.1-0.6c-0.3-0.4-0.5-1-0.5-1.8h4
		v-0.3c0-1.2-0.2-2.1-0.7-2.7C-298.6,307-299.2,306.7-299.9,306.7z M-294.3,306.7c-0.2,0-0.4,0.1-0.6,0.2c-0.2,0.2-0.4,0.5-0.6,1
		v-1.1h-0.8v7h0.9v-3.7c0-0.5,0-1,0.2-1.5c0.1-0.3,0.2-0.5,0.4-0.6c0.2-0.1,0.3-0.2,0.5-0.2c0.2,0,0.4,0.1,0.7,0.3l0.3-1.1
		C-293.7,306.8-294,306.7-294.3,306.7z M-283.1,306.7c-0.7,0-1.3,0.3-1.8,0.9c-0.5,0.6-0.7,1.5-0.7,2.7c0,1.2,0.2,2.1,0.7,2.7
		c0.5,0.6,1,0.9,1.7,0.9c0.6,0,1.1-0.2,1.5-0.7c0.4-0.4,0.7-1.1,0.8-1.9l-0.9-0.1c-0.1,0.6-0.2,1-0.5,1.3c-0.2,0.3-0.5,0.4-0.9,0.4
		c-0.4,0-0.8-0.2-1.1-0.6c-0.3-0.4-0.4-1.1-0.4-2.1c0-0.9,0.1-1.6,0.4-2c0.3-0.4,0.7-0.7,1.1-0.7c0.3,0,0.6,0.1,0.8,0.4
		c0.2,0.2,0.4,0.6,0.4,1.1l0.9-0.2c-0.1-0.7-0.3-1.3-0.7-1.7C-282.1,306.9-282.6,306.7-283.1,306.7z M-277.9,306.7
		c-0.7,0-1.3,0.3-1.8,0.9c-0.5,0.6-0.7,1.6-0.7,2.8c0,1.2,0.2,2.1,0.7,2.7c0.5,0.6,1.1,0.9,1.8,0.9c0.6,0,1.1-0.2,1.5-0.6
		c0.4-0.4,0.7-0.9,0.9-1.7l-0.9-0.2c-0.3,1-0.7,1.4-1.4,1.4c-0.4,0-0.8-0.2-1.1-0.6c-0.3-0.4-0.5-1-0.5-1.8h4v-0.3
		c0-1.2-0.2-2.1-0.7-2.7C-276.6,307-277.2,306.7-277.9,306.7z M-272.5,306.7c-0.6,0-1.1,0.2-1.5,0.6c-0.4,0.4-0.5,0.9-0.5,1.5
		c0,0.3,0.1,0.6,0.2,0.9c0.1,0.3,0.3,0.5,0.6,0.7c0.2,0.2,0.7,0.4,1.4,0.6c0.5,0.2,0.8,0.3,0.9,0.4c0.2,0.2,0.3,0.4,0.3,0.6
		c0,0.3-0.1,0.6-0.3,0.8c-0.2,0.2-0.5,0.3-0.9,0.3c-0.4,0-0.7-0.1-1-0.4c-0.2-0.2-0.4-0.6-0.4-1.1l-0.9,0.2c0.2,1.5,1,2.2,2.2,2.2
		c0.7,0,1.2-0.2,1.6-0.6c0.4-0.4,0.6-1,0.6-1.6c0-0.4-0.1-0.7-0.2-0.9c-0.1-0.3-0.3-0.5-0.5-0.6c-0.2-0.2-0.7-0.4-1.5-0.6
		c-0.5-0.2-0.9-0.3-1-0.4c-0.2-0.1-0.3-0.4-0.3-0.6c0-0.3,0.1-0.5,0.3-0.7c0.2-0.2,0.5-0.3,0.9-0.3c0.7,0,1.1,0.4,1.2,1.1l0.9-0.1
		c-0.1-0.5-0.2-0.9-0.3-1.1c-0.2-0.3-0.4-0.5-0.7-0.6C-271.8,306.8-272.1,306.7-272.5,306.7z M-293.4,306.9l2,7h0.9l2-7h-0.9
		l-1.2,4.3c-0.1,0.5-0.3,1-0.4,1.3c-0.1-0.5-0.2-1-0.3-1.4l-1.2-4.2H-293.4z M-287.6,306.9v7h0.9v-7H-287.6z M-317.6,307
		c-0.7,0-1.3,0.3-1.8,1c-0.5,0.6-0.7,1.6-0.7,2.8c0,1.2,0.2,2.1,0.7,2.7s1.1,0.9,1.8,0.9c0.6,0,1.1-0.2,1.5-0.6
		c0.4-0.4,0.7-0.9,0.8-1.7l-0.9-0.1c-0.3,1-0.7,1.4-1.4,1.4c-0.4,0-0.8-0.2-1.1-0.6c-0.3-0.4-0.5-1-0.5-1.8h4l0-0.3
		c0-1.2-0.2-2.1-0.7-2.7C-316.4,307.3-317,307-317.6,307z M-327.9,307.1l1.6,7h1l1.1-5.4l0.2,1.2l0.9,4.2h0.9l1.7-7h-0.9l-0.9,4
		l-0.3,1.4l-0.3-1.4l-0.8-4h-0.9l-0.8,4.1l-0.3,1.5l-0.3-1.5l-0.8-4H-327.9z M-269.7,307.2v0.3h0.9v2.3h0.4v-2.3h0.9v-0.3H-269.7z
		 M-267.2,307.2v2.7h0.3v-2.3l0.8,2.3h0.3l0.8-2.2v2.2h0.4v-2.7h-0.5l-0.6,1.9c-0.1,0.2-0.1,0.3-0.1,0.4l-0.1-0.4l-0.6-1.9H-267.2z
		 M-299.9,307.7c0.5,0,0.8,0.2,1.1,0.7c0.2,0.3,0.3,0.8,0.4,1.4h-3c0-0.6,0.2-1.1,0.5-1.5C-300.6,307.9-300.3,307.7-299.9,307.7z
		 M-277.9,307.7c0.5,0,0.8,0.2,1.1,0.7c0.2,0.3,0.3,0.8,0.4,1.4h-3c0-0.6,0.2-1.1,0.5-1.5C-278.7,307.9-278.3,307.7-277.9,307.7z
		 M-317.6,307.9c0.4,0,0.8,0.2,1.1,0.7c0.2,0.3,0.3,0.8,0.4,1.4h-3c0-0.6,0.2-1.1,0.5-1.5C-318.4,308.1-318,307.9-317.6,307.9z
		 M-311.8,307.9c0.4,0,0.8,0.2,1,0.7c0.3,0.4,0.4,1.1,0.4,2c0,0.9-0.1,1.6-0.4,2c-0.3,0.5-0.6,0.7-1,0.7c-0.3,0-0.5-0.1-0.7-0.3
		c-0.2-0.2-0.4-0.5-0.5-0.8c-0.1-0.4-0.2-0.9-0.2-1.6c0-0.9,0.2-1.5,0.4-1.9C-312.6,308.2-312.2,307.9-311.8,307.9z"/>
	<path id="polygon287" fill="#F7A80D" d="M-341,300.5l-3.5,1.5l3.2,1.4l3.7-1.4L-341,300.5z M-346.3,302.4l-0.1,6.7l5.1,2.2v-7
		L-346.3,302.4z M-335.8,302.4l-4.6,1.8v6.6l4.6-1.9V302.4z"/>
	<path id="polygon311" fill="#F7A80D" d="M-330.3,281.4l-3.5,1.5l3.3,1.4l3.7-1.4L-330.3,281.4z M-335.2,283.4v6.7l4.4,1.3l0.1-6.1
		L-335.2,283.4z M-325.4,283.8l-4.1,1.8v6.6l4.1-1.9V283.8z"/>
	<path id="use3387" fill="#F7A80D" d="M-346.8,290.9l-3.5,1.5l3.2,1.4l3.7-1.4L-346.8,290.9z M-352,292.8l-0.1,6.7l5.1,2.2v-7
		L-352,292.8z M-341.5,292.8l-4.6,1.8v6.6l4.6-1.9V292.8z"/>
	<path id="use3389" fill="#F7A80D" d="M-335.5,290.7l-3.5,1.5l3.2,1.4l3.7-1.4L-335.5,290.7z M-340.8,292.5l-0.1,6.7l5.1,2.2v-7
		L-340.8,292.5z M-330.3,292.5l-4.6,1.8v6.6l4.6-1.9V292.5z"/>
	<path id="use3391" fill="#F7A80D" d="M-319.3,281.4l-3.5,1.5l3.2,1.4l3.7-1.4L-319.3,281.4z M-324.6,283.3l-0.1,6.7l5.1,2.2v-7
		L-324.6,283.3z M-314.1,283.3l-4.6,1.8v6.6l4.6-1.9V283.3z"/>
</g>
</svg>
