<?xml version="1.0" encoding="utf-8"?>
<!-- Generator: Adobe Illustrator 19.2.1, SVG Export Plug-In . SVG Version: 6.00 Build 0)  -->
<svg version="1.1" id="logo" xmlns="http://www.w3.org/2000/svg" xmlns:xlink="http://www.w3.org/1999/xlink" x="0px" y="0px"
	 viewBox="0 0 346.9 85.1" style="enable-background:new 0 0 346.9 85.1;" xml:space="preserve">
<style type="text/css">
	.st0{fill-rule:evenodd;clip-rule:evenodd;}
	.st1{fill-rule:evenodd;clip-rule:evenodd;fill:#FFFFFF;}
	.st2{fill-rule:evenodd;clip-rule:evenodd;fill:#0082FC;}
</style>
<g id="Bluetooth">
	<path class="st0" d="M87.2,45.6h3.3c6,0,8.3,3,8.3,9c0,5.9-2,9-7.3,9h-4.2V45.6L87.2,45.6z M87.2,21.5H91c4.5,0,6.6,2.8,6.6,8.3
		c0,4.9-2.9,7.5-6.8,7.5h-3.7V21.5L87.2,21.5z M77.1,72h16c11.5,0,15.8-7.3,15.8-17c0-7.6-3-11.6-8.1-13.9c4.9-2,7-7.2,7-12.3
		c0-10-4.8-15.5-15.6-15.5h-15V72L77.1,72z"/>
	<polygon points="121.9,72 121.9,13.2 112.8,13.2 112.8,72 121.9,72 	"/>
	<path d="M146.3,28.2v34.3c-2.1,1.5-3.9,2.8-5.9,2.8c-2,0-3.3-1-3.3-3.2V28.2h-9.1v35.4c0,5.7,2.8,9.2,7.6,9.2c5.3,0,7.2-2,11.1-5.2
		V72h8.6V28.2H146.3L146.3,28.2z"/>
	<path class="st0" d="M170.1,44.3V42c0-5,1.8-7.2,5-7.2c3.3,0,5,2.1,5,7.2v2.3H170.1L170.1,44.3z M189.4,43.6
		c0-9.6-3.7-16.3-14.2-16.3c-10.4,0-14.2,6.7-14.2,16.3v12.9c0,9.6,3.7,16.3,14.2,16.3c10.2,0,14-6.3,14.2-15.6h-9.1v1
		c0,5-1.8,7.2-5,7.2c-3.3,0-5-2.1-5-7.2v-6.3h19.2V43.6L189.4,43.6z"/>
	<path d="M346.9,19.5c0,3.5-3,6.4-6.4,6.4c-3.6,0-6.4-2.8-6.4-6.4c0-3.5,2.9-6.4,6.4-6.4C344.1,13.1,346.9,15.9,346.9,19.5z
		 M335.4,19.4c0,2.7,2.2,5.1,5,5.1c2.8,0,5-2.3,5-5c0-2.8-2.2-5.1-5-5.1C337.7,14.4,335.4,16.7,335.4,19.4z M341.6,23l-2-3.1h-0.1
		V23h-1.2v-7.1h2.1c1.7,0,2.4,0.7,2.4,1.8c0,1.2-0.7,1.9-1.9,2c0.2,0.2,0.4,0.6,0.7,1l1.5,2.2H341.6z M340.4,16.9h-0.8v2.2h0.5
		c1.1,0,1.5-0.6,1.5-1.2C341.6,17.2,341.2,16.9,340.4,16.9z"/>
	<path d="M197.4,35.7v27.3c0,6.7,3.8,9.8,10.7,9.8c2.3,0,3.3-0.2,4.6-0.5v-7.8h-3c-2.1,0-3.1-1.3-3.1-3.6V35.7h6.1v-7.5h-6.1V16.4
		h-9.1v11.8h-5v7.5H197.4L197.4,35.7z"/>
	<path class="st0" d="M235.6,58.1c0,5-1.8,7.2-5,7.2c-3.3,0-5-2.1-5-7.2V42c0-5,1.8-7.2,5-7.2c3.3,0,5,2.1,5,7.2V58.1L235.6,58.1z
		 M216.4,56.5c0,9.6,3.7,16.3,14.2,16.3c10.4,0,14.2-6.7,14.2-16.3V43.6c0-9.6-3.7-16.3-14.2-16.3c-10.4,0-14.2,6.7-14.2,16.3V56.5
		L216.4,56.5z"/>
	<path class="st0" d="M268.7,58.1c0,5-1.8,7.2-5,7.2c-3.3,0-5-2.1-5-7.2V42c0-5,1.8-7.2,5-7.2c3.3,0,5,2.1,5,7.2V58.1L268.7,58.1z
		 M249.5,56.5c0,9.6,3.7,16.3,14.2,16.3c10.4,0,14.2-6.7,14.2-16.3V43.6c0-9.6-3.7-16.3-14.2-16.3c-10.4,0-14.2,6.7-14.2,16.3V56.5
		L249.5,56.5z"/>
	<path d="M285.6,35.7v27.3c0,6.7,3.8,9.8,10.7,9.8c2.3,0,3.3-0.2,4.6-0.5v-7.8h-3c-2.1,0-3.1-1.3-3.1-3.6V35.7h6.1v-7.5h-6.1V16.4
		h-9.1v11.8h-5v7.5H285.6L285.6,35.7z"/>
	<path d="M315.6,72V37.6c2.1-1.5,3.9-2.8,5.9-2.8c2,0,3.3,1,3.3,3.2V72h9.1V36.6c0-5.7-2.8-9.2-7.6-9.2c-5.3,0-7.2,2-10.6,4.9v-19
		h-9.1V72H315.6L315.6,72z"/>
</g>
<g id="Bug_1_">
	<ellipse class="st1" cx="31.4" cy="42.2" rx="24.3" ry="40.2"/>
	<path id="Bug" class="st2" d="M34.8,21l7,7l-7,7L34.8,21L34.8,21z M34.8,64.1l7-7l-7-7L34.8,64.1L34.8,64.1z M27.3,42.6L12.1,27.3
		l4.4-4.4L28.6,35V6l22,22L36.1,42.6l14.6,14.6l-22,22V50.1L16.5,62.2l-4.4-4.4L27.3,42.6L27.3,42.6z M31.4,85.1
		c18.6,0,31.4-8.8,31.4-42.6C62.8,8.8,50,0,31.4,0C12.8,0,0,8.8,0,42.6C0,76.3,12.8,85.1,31.4,85.1L31.4,85.1z"/>
</g>
</svg>
