<svg xmlns="http://www.w3.org/2000/svg" viewBox="0 0 424 126">
  <defs>
    <style>
      .a {
        fill: #000;
        fill-rule: evenodd;
      }
    </style>
  </defs>
  <title>Sennheiser Logo RGB</title>
  <path class="a" d="M223.608,50.56h4.811V75.453h-6.125L215.157,64c-1.222-1.964-2.262-4.125-2.262-4.125l-.072.025V75.453h-4.811l0-24.893h5.655l8.447,13.562a18.1,18.1,0,0,1,1.449,2.81l.046-.025Zm27.658,10.194h-8.377V50.546h-6.107V75.441h6.107V64.818h8.377V75.441h6.14V50.546h-6.14Zm-89.447,3.873h7.943V60.883h-7.943V54.4h10.627V50.56H155.694V75.452h16.943V71.3H161.819Zm-22.063-8.4a1.109,1.109,0,0,1,.914-1.827h9.106V50.559H138.988a5.313,5.313,0,0,0-5.467,4.954c0,1.458.111,2.522,2.3,4.818l8.113,8.5a1.375,1.375,0,0,1-.913,2.468h-10.03v4.155h11.439a5.894,5.894,0,0,0,6.086-5.85c0-1.646-.386-2.753-2.561-4.995Zm55.08,10.679-.046.025a18.1,18.1,0,0,0-1.449-2.81L184.894,50.56h-5.655l0,24.893h4.811V59.9l.072-.025s1.039,2.161,2.262,4.125l7.137,11.452h6.125V50.56h-4.811Zm135.1-2.281h7.943V60.883H329.94V54.4h10.627V50.56H323.814V75.452h16.943V71.3H329.94Zm37.708,10.827h-6.654l-4.78-10.22h-2.682l.006,10.22h-6.115V50.56h11.163c5.379,0,7.876,3.346,7.876,7.217a7.142,7.142,0,0,1-4.8,6.744Zm-6.425-17.514c0-1.145-.672-3.536-3.9-3.536l-3.793,0v7.078h3.72C360.609,61.478,361.223,59.027,361.223,57.939ZM307.8,56.227a1.109,1.109,0,0,1,.914-1.827h9.106V50.559H307.033a5.313,5.313,0,0,0-5.467,4.954c0,1.458.111,2.522,2.3,4.818l8.113,8.5a1.375,1.375,0,0,1-.913,2.468h-10.03v4.155h11.439a5.894,5.894,0,0,0,6.086-5.85c0-1.646-.386-2.753-2.561-4.995Zm-35.906,8.4h7.943V60.883H271.9V54.4h10.627V50.56H265.77V75.452h16.943V71.3H271.9ZM289.38,75.454H295.5V50.559H289.38ZM56,42V84h56V42Zm30.816,3.873h0c-3.328,1.276-6.527,4.1-9.108,9.761-.746,1.636-2.156,4.814-2.8,6.234C69.716,73.252,67.059,75.7,59.232,75.7V45.151H86.683a.373.373,0,0,1,.133.722ZM108.768,50.3V80.849H81.316a.373.373,0,0,1-.133-.722h0c3.329-1.276,6.526-4.1,9.108-9.761.746-1.636,2.156-4.814,2.8-6.234C98.284,52.748,100.941,50.3,108.768,50.3Z"/>
</svg>
